<svg id="book" enable-background="new 0 0 512 512" height="512" viewBox="0 0 512 512" width="512" xmlns="http://www.w3.org/2000/svg"><g fill="#1d1d1b"><path d="m330.397 326.22 120.806-221.454s-171.429 5.883-248.516-17.636l-195.589 183.238s188.688 73.487 323.299 55.852z"/><path d="m12.208 280.168 3.841 10.018s188.687 73.488 323.297 55.852l120.806-221.452-3.84-10.018-120.806 221.452c-134.612 17.635-323.298-55.852-323.298-55.852z"/><path d="m20.904 297.806 3.841 10.016s188.687 73.49 323.3 55.853l120.802-221.451-3.84-10.016-120.804 221.45c-134.612 17.64-323.299-55.852-323.299-55.852z"/><path d="m30.108 314.463 3.841 10.019s188.688 73.489 323.298 55.852l120.805-221.452-3.843-10.016-120.802 221.453c-134.612 17.635-323.299-55.856-323.299-55.856z"/><path d="m488.901 156.751-133.574 241.03c-134.611 17.636-323.299-60.204-323.299-60.204l-27.91 20.998s220.362 82.22 362.995 63.532l140.769-265.103z"/></g></svg>