<?xml version="1.0" encoding="UTF-8"?>
<!-- Generator: Adobe Illustrator 24.3.0, SVG Export Plug-In . SVG Version: 6.00 Build 0)  -->
<svg xmlns="http://www.w3.org/2000/svg" xmlns:xlink="http://www.w3.org/1999/xlink" version="1.1" id="Capa_1" x="0px" y="0px" viewBox="0 0 512.016 512.016" style="enable-background:new 0 0 512.016 512.016;" xml:space="preserve" width="512" height="512">
<g>
	<g id="Page-1_32_">
		<g id="paperwork_filled_32_" transform="translate(-296.000000, -56.000000)">
			<path id="pen_x2C_-ink_x2C_-writing_x2C_-nib_x2C_-text_x2C_-author" d="M572.493,145.535l57.494-83.047     c5.348-7.725,16.386-8.72,23.029-2.077l150.588,150.588c6.643,6.643,5.648,17.682-2.077,23.029l-83.047,57.494L572.493,145.535z      M693.313,308.947l-48.626,33.664c-20.314,14.064-32.436,37.199-32.436,61.906v73.13c0,6.841-4.611,12.822-11.227,14.563     l-286.118,75.294c-11.153,2.935-21.33-7.243-18.395-18.395l75.294-286.118c1.741-6.616,7.722-11.226,14.563-11.226h73.13     c24.707,0,47.843-12.122,61.906-32.436l33.664-48.626L693.313,308.947z M430.35,412.369l-84.748,84.748     c-5.881,5.881-5.881,15.416,0,21.296c5.881,5.881,15.416,5.881,21.296,0l84.748-84.748c7.457,4.041,15.998,6.335,25.074,6.335     c29.109,0,52.706-23.597,52.706-52.706c0-29.109-23.597-52.706-52.706-52.706s-52.706,23.597-52.706,52.706     C424.015,396.372,426.31,404.912,430.35,412.369z M476.721,409.883c-12.475,0-22.588-10.113-22.588-22.588     s10.113-22.588,22.588-22.588s22.588,10.113,22.588,22.588S489.196,409.883,476.721,409.883z"/>
		</g>
	</g>
</g>















</svg>
