<svg id="Capa_1" enable-background="new 0 0 518.935 518.935" height="512" viewBox="0 0 518.935 518.935" width="512" xmlns="http://www.w3.org/2000/svg"><g><path d="m188.754 118.844c-10.291.079-20.565-.835-30.68-2.73-3.829-.85-6.554-4.246-6.555-8.169.001-59.616 48.329-107.945 107.946-107.945s107.945 48.329 107.945 107.945c-.001 4.587-3.693 8.318-8.279 8.369l-.646.004c-18.667 0-53.638-8.663-70.988-39.764-27.672 35.429-70.081 42.29-98.743 42.29zm-20.227-17.895c20.857 2.938 83.46 6.812 113.331-46.037 2.271-4.023 7.374-5.442 11.396-3.171 1.877 1.06 3.272 2.803 3.895 4.867 7.634 23.443 28.517 40.071 53.074 42.261-5.053-50.123-49.781-86.659-99.904-81.606-43.923 4.428-78.371 39.674-81.792 83.686z"/><path d="m411.338 280.516c-3.48-.003-6.596-2.156-7.829-5.41-10.224-26.733-35.837-44.424-64.458-44.521h-32.895c-4.622 0-8.369-3.747-8.369-8.369s3.747-8.369 8.369-8.369h32.895c35.572.124 67.406 22.11 80.117 55.333 1.634 4.324-.547 9.154-4.871 10.788-.944.363-1.947.549-2.959.548z"/><path d="m106.283 284.28c-4.625-.005-8.37-3.758-8.366-8.383.001-.862.135-1.719.397-2.54 11.279-35.517 44.299-59.609 81.564-59.51h33.018c4.622 0 8.369 3.747 8.369 8.369s-3.747 8.369-8.369 8.369h-33.018c-29.981-.081-56.548 19.299-65.627 47.872-1.106 3.467-4.328 5.822-7.968 5.823z"/><path d="m259.522 256.235h-.008c-21.794.059-42.084-11.108-53.695-29.553-.849-1.339-1.3-2.893-1.299-4.479v-21.363c-32.854-19.411-53.007-54.735-53-92.895.008-4.628 3.765-8.373 8.393-8.366.596.001 1.191.066 1.774.193 3.441.756 84.767 17.755 120.172-44.86 2.271-4.023 7.374-5.442 11.396-3.171 1.877 1.06 3.272 2.803 3.895 4.867 12.937 42.723 59.743 42.984 61.827 42.968h.041c4.628-.005 8.385 3.741 8.393 8.369.006 38.126-20.091 73.429-52.877 92.887v21.372c0 1.586-.45 3.139-1.3 4.479-11.619 18.445-31.913 29.611-53.712 29.552zm-38.265-36.565c8.746 12.468 23.035 19.872 38.265 19.827 15.231.043 29.522-7.36 38.273-19.827v-23.721c-.001-3.087 1.699-5.924 4.421-7.38 27.324-14.53 45.432-41.907 48.113-72.737-25.996-2.362-49.321-16.943-62.832-39.278-35.306 45.191-94.558 43.892-118.717 41.182 3.264 30.119 21.263 56.654 48.039 70.825 2.73 1.454 4.437 4.295 4.438 7.388z"/><path d="m259.465 518.935c-4.619.003-8.366-3.74-8.369-8.359 0-.003 0-.006 0-.01v-193.485c0-3.14 1.758-6.015 4.553-7.445 58.725-31.353 124.38-47.466 190.947-46.862 4.551.1 8.188 3.817 8.189 8.369v81.87c0 4.622-3.747 8.369-8.369 8.369s-8.369-3.747-8.369-8.369v-73.579c-59.291.857-117.567 15.508-170.214 42.792v174.851c52.969-26.179 111.133-40.153 170.213-40.896v-57.626c0-4.622 3.747-8.369 8.369-8.369s8.369 3.747 8.369 8.369v66.072c-.001 2.251-.908 4.408-2.517 5.982-1.647 1.513-3.795 2.363-6.032 2.386-63.792-.554-126.702 14.925-182.954 45.015-1.18.608-2.489.925-3.816.925z"/><path d="m320.286 374.723c-4.621.007-8.373-3.733-8.381-8.355-.005-2.982 1.578-5.742 4.155-7.243 20.99-12.981 45.554-18.974 70.163-17.118 4.602.42 7.994 4.49 7.576 9.092-.466 4.58-4.508 7.946-9.096 7.576-21.142-1.531-42.223 3.689-60.208 14.907-1.277.748-2.73 1.141-4.209 1.141z"/><path d="m320.286 432.774c-4.621.007-8.373-3.733-8.381-8.354-.005-2.983 1.578-5.742 4.156-7.243 20.993-12.973 45.554-18.967 70.163-17.122 4.605.406 8.009 4.469 7.603 9.074s-4.469 8.009-9.074 7.603c-.016-.001-.033-.003-.049-.005-21.139-1.507-42.214 3.711-60.208 14.907-1.278.747-2.731 1.14-4.21 1.14z"/><path d="m259.465 518.935c-1.271-.001-2.526-.29-3.67-.846-56.572-28.696-119.493-42.589-182.889-40.381-2.279.069-4.495-.758-6.17-2.305-1.653-1.581-2.589-3.769-2.591-6.056v-70.792c0-4.622 3.747-8.369 8.369-8.369s8.369 3.747 8.369 8.369v62.129c58.78-.769 116.972 11.776 170.213 36.696v-175.035c-52.928-26.009-111.245-39.166-170.213-38.404v69.072c0 4.622-3.747 8.369-8.369 8.369s-8.369-3.747-8.369-8.369v-77.155c0-4.47 3.512-8.15 7.977-8.361 66.205-2.372 131.928 12.1 191.013 42.061 2.875 1.403 4.699 4.323 4.699 7.523v193.485c.003 4.619-3.738 8.366-8.357 8.369-.004 0-.008 0-.012 0z"/><path d="m198.643 376.26c-1.425.001-2.827-.365-4.07-1.062-18.11-10.746-39.178-15.429-60.135-13.366-4.508.602-8.651-2.564-9.253-7.072-.012-.09-.023-.18-.032-.271-.536-4.589 2.75-8.744 7.339-9.28 24.454-2.523 49.073 2.867 70.236 15.377 4.035 2.254 5.479 7.353 3.224 11.388-1.477 2.647-4.274 4.287-7.309 4.286z"/><path d="m198.643 434.311c-1.425.001-2.827-.365-4.07-1.063-18.109-10.748-39.178-15.431-60.135-13.366-4.524.59-8.669-2.599-9.259-7.123-.01-.073-.018-.147-.026-.22-.536-4.589 2.75-8.744 7.339-9.28 24.454-2.514 49.07 2.875 70.236 15.377 4.035 2.253 5.48 7.351 3.226 11.387-1.477 2.648-4.275 4.289-7.311 4.288z"/><path d="m70.413 407.026c-16.855.001-30.519-13.661-30.521-30.516-.001-13.813 9.276-25.904 22.618-29.48l20.105-5.39c16.284-4.346 33.008 5.332 37.354 21.616 4.34 16.261-5.304 32.965-21.556 37.338l-20.105 5.386c-2.574.693-5.228 1.044-7.895 1.046zm16.534-49.22-20.105 5.39c-7.347 1.982-11.697 9.545-9.715 16.892 1.977 7.331 9.513 11.68 16.85 9.726l20.105-5.386c7.352-1.97 11.714-9.527 9.744-16.879-1.971-7.351-9.528-11.713-16.879-9.743z"/><path d="m448.508 407.026c-2.663-.001-5.315-.353-7.887-1.046l-20.105-5.386c-16.28-4.362-25.941-21.096-21.578-37.376s21.096-25.94 37.376-21.578l20.105 5.39c16.28 4.365 25.939 21.101 21.574 37.381-3.577 13.343-15.671 22.619-29.485 22.615zm-20.089-49.69c-7.611-.001-13.782 6.168-13.784 13.779-.001 6.238 4.188 11.698 10.212 13.314l20.105 5.386c7.354 1.958 14.902-2.417 16.86-9.77 1.953-7.336-2.396-14.87-9.725-16.848l-20.105-5.39c-1.161-.313-2.359-.471-3.563-.471z"/></g></svg>