<svg height="512" viewBox="0 0 56 56" width="512" xmlns="http://www.w3.org/2000/svg"><g id="Page-1" fill="none" fill-rule="evenodd"><g id="002---Open-Book" fill="rgb(0,0,0)" fill-rule="nonzero"><path id="Shape" d="m0 45.816 23 10.12v-37.815l-23-10.121zm18.882-2.342c-.1129308.2400677-.3166306.42542-.5662607.5152568s-.5247283.0767942-.7647393-.0362568l-12.951-6.097c-.33382454-.1454497-.56220047-.4608601-.59619425-.8234051-.03399379-.3625449.13176848-.7149115.4327361-.919882.30096763-.2049705.68956215-.2301423 1.01445815-.0657129l12.955 6.1c.4965068.2362461.7091396.829027.476 1.327zm2.023-4.048c-.1129308.2400677-.3166306.42542-.5662607.5152568s-.5247283.0767942-.7647393-.0362568l-17-8c-.32332536-.1521951-.54089517-.4653213-.57075299-.8214268-.02985782-.3561056.13253246-.7010896.426-.905s.67342763-.2357683.99675299-.0835732l17 8c.2400677.1129308.42542.3166306.5152568.5662607s.0767942.5247283-.0362568.7647393zm-18.905-23.426c.0016114-.3415455.17742977-.6586466.46626365-.84094.28883387-.1822935.65073059-.2045638.95973635-.05906l17 8c.3488424.1642514.5721768.5144274.574.9v10c.0000948.3424343-.1750354.6611057-.4641593.844596-.2891239.1834902-.6520324.206281-.9618407.060404l-17-8c-.35047261-.1650243-.57410723-.517619-.574-.905z"/><path id="Shape" d="m27 16v-1.927l-.015-.1c-.438-1.367-8.741-7.6-21-9.793-.35809876-.05670588-.71903608.08346766-.945.367l-2.063 2.579 20.829 9.164c.029.013.051.036.08.05.3291409-.2218424.7170772-.340243 1.114-.34z"/><path id="Rectangle-path" d="m25 48h6v2h-6z"/><path id="Rectangle-path" d="m25 28h6v18h-6z"/><path id="Shape" d="m19 24.635-15-7.059v7.789l15 7.059z"/><path id="Shape" d="m42.722.549c-7.488 2.061-10.906 6.337-12.455 9.525 4.1922083-2.90312114 8.8311456-5.10081472 13.733-6.506v-2.055c-.0014137-.31407725-.1494346-.60947174-.40018-.79860991s-.5754386-.25031363-.87782-.16539009z"/><path id="Shape" d="m12 1.513v2.055c4.9004751 1.40351813 9.5383745 3.59917333 13.73 6.5-1.552-3.188-4.97-7.46-12.452-9.519-.3023814-.08492354-.6270746-.02374808-.87782.16539009s-.3987663.48453266-.40018.79860991z"/><path id="Rectangle-path" d="m25 24h6v2h-6z"/><path id="Shape" d="m37 32.424 15-7.059v-7.789l-15 7.059z"/><path id="Shape" d="m31 18.121v-.121h-6v.121 3.879h6z"/><path id="Shape" d="m50.956 4.545c-.225835-.28370755-.5868781-.42392217-.945-.367-12.277 2.2-20.59 8.449-21.006 9.858v.037 1.927h2c.3969228-.000243.7848591.1181576 1.114.34.029-.014.05-.037.079-.049l20.83-9.165z"/><path id="Shape" d="m31 52h-6v4h6z"/><path id="Shape" d="m33 18.121v37.815l23-10.12v-37.816zm18.4 19.735-12.954 6.1c-.3243799.1608174-.7103503.1337397-1.0090991-.0707933s-.4636095-.5545719-.4310198-.9151582c.0325898-.3605863.2575394-.6753942.5881189-.8230485l12.955-6.1c.324896-.1644294.7134905-.1392576 1.0144581.0657129.3009677.2049705.4667299.5573371.4327362.919882-.0339938.362545-.2623698.6779554-.5961943.8234051zm2.023-5.951-17 8c-.4998177.2352733-1.0957267.0208177-1.331-.479s-.0208177-1.0957267.479-1.331l17-8c.3233254-.1521951.7032855-.1203372.996753.0835732s.4558578.5488944.426.905c-.0298578.3561055-.2474276.6692317-.570753.8214268zm.577-5.905c.0001072.387381-.2235274.7399757-.574.905l-17 8c-.1333682.0623678-.2787696.094793-.426.095-.5522847 0-1-.4477153-1-1v-10c-.0001072-.387381.2235274-.7399757.574-.905l17-8c.3098083-.145877.6727168-.1230862.9618407.060404.2891239.1834903.4642541.5021617.4641593.844596z"/></g></g></svg>