<svg fill="none" height="512" viewBox="0 0 24 24" width="512" xmlns="http://www.w3.org/2000/svg"><path d="m12.6158 2.21212c-.3618-.28283-.8698-.28283-1.2316 0l-1.65934 1.29695-2.08548-.29354c-.45478-.06401-.89469.18997-1.06664.61583l-.78853 1.95285-1.95285.78853c-.42586.17195-.67984.61186-.61583 1.06664l.29354 2.08548-1.29695 1.65934c-.28283.3618-.28283.8698 0 1.2316l1.29695 1.6593-.29354 2.0855c-.06401.4548.18997.8947.61583 1.0667l1.95285.7885.78853 1.9528c.17195.4259.61186.6799 1.06664.6159l2.08548-.2936 1.65934 1.297c.3618.2828.8698.2828 1.2316 0l1.6593-1.297 2.0855.2936c.4548.064.8947-.19 1.0667-.6159l.7885-1.9528 1.9528-.7885c.4259-.172.6799-.6119.6159-1.0667l-.2936-2.0855 1.297-1.6593c.2828-.3618.2828-.8698 0-1.2316l-1.297-1.65934.2936-2.08548c.064-.45478-.19-.89469-.6159-1.06664l-1.9528-.78853-.7885-1.95285c-.172-.42586-.6119-.67984-1.0667-.61583l-2.0855.29354z" fill="rgb(0,0,0)"/></svg>